<svg xmlns="http://www.w3.org/2000/svg" width="288" height="288" fill="none">
    <path fill="#3F4B5C" d="M0 0h288v288H0z" />
    <path fill="#8CB3D9" fill-rule="evenodd" d="M210.094 214.094c32.298-8.614 44.953-36.875 28.204-68.092 16.745-31.217 4.094-59.478-28.208-68.092-8.613-32.299-36.875-44.953-68.092-28.204C110.781 32.957 82.52 45.61 73.906 77.91c-32.298 8.614-44.953 36.875-28.204 68.092-16.748 31.217-4.094 59.478 28.204 68.095 8.614 32.299 36.875 44.953 68.092 28.204 31.217 16.746 59.479 4.095 68.096-28.207ZM142 197.852c28.635 0 51.848-23.214 51.848-51.849 0-28.634-23.213-51.848-51.848-51.848-28.635 0-51.848 23.214-51.848 51.848 0 28.635 23.213 51.849 51.848 51.849Z" clip-rule="evenodd" />
    <path fill="#D9B28C" d="M183.478 146c0 22.908-18.57 41.479-41.478 41.479S100.521 168.908 100.521 146c0-22.908 18.571-41.479 41.479-41.479 22.908 0 41.478 18.571 41.478 41.479Z" />
</svg>