<svg xmlns="http://www.w3.org/2000/svg" width="432" height="432" fill="none">
    <g clip-path="url(#clip0_913_884)">
        <path fill="#3F4B5C" d="M.271.338h432v432h-432z" />
        <rect width="123.404" height="21.139" x="154.569" y="302.139" fill="#8CB3D9" rx="5" />
        <rect width="19.904" height="20.132" x="133.669" y="265.901" fill="#8CB3D9" rx="5" />
        <rect width="19.904" height="20.132" x="133.67" y="229.663" fill="#8CB3D9" rx="5" />
        <rect width="19.904" height="20.132" x="170.492" y="265.901" fill="#8CB3D9" rx="5" />
        <rect width="19.904" height="20.132" x="242.146" y="265.901" fill="#8CB3D9" rx="5" />
        <rect width="19.904" height="20.132" x="278.968" y="229.663" fill="#8CB3D9" rx="5" />
        <rect width="19.904" height="20.132" x="278.968" y="265.901" fill="#8CB3D9" rx="5" />
        <path stroke="#8CB3D9" stroke-width="20" d="M164.271 122.338h104.926a5 5 0 0 1 5 5.025l-.411 83.817a5.004 5.004 0 0 1-1.804 3.821l-55.706 46.312-55.217-46.261a5.003 5.003 0 0 1-1.788-3.833v-83.881a5 5 0 0 1 5-5Zm55.204 141.655-.006-.004.006.004Z" />
    </g>
</svg>