<svg xmlns="http://www.w3.org/2000/svg" width="432" height="432" fill="none">
    <path fill="#3F4B5C" d="M0 0h432v432H0z" />
    <path fill="#8CB3D9" fill-rule="evenodd" d="M137.118 188.101a6.954 6.954 0 0 0 0 9.824l19.344 19.368v27.385c0 3.837 3.106 6.947 6.938 6.947h27.351l19.343 19.367a6.932 6.932 0 0 0 9.812 0l19.344-19.367h27.354c3.831 0 6.938-3.11 6.938-6.947V217.29l19.34-19.365a6.952 6.952 0 0 0 0-9.824l-19.34-19.364v-27.391c0-3.836-3.107-6.947-6.938-6.947h-27.357l-19.341-19.364a6.932 6.932 0 0 0-9.812 0l-19.34 19.364H163.4c-3.832 0-6.938 3.111-6.938 6.947v27.388l-19.344 19.367Zm39.198 43.645v-22.687l-16.025-16.046 16.025-16.045v-22.689h22.662L215 138.236l16.023 16.043h22.664v22.692l16.023 16.042-16.023 16.043v22.69h-22.661L215 247.791l-16.025-16.045h-22.659Z" clip-rule="evenodd" />
    <path fill="#8CB3D9" d="M133 270.94a4.967 4.967 0 0 1 4.964-4.97h9.831a4.967 4.967 0 0 1 4.964 4.97v10.071a4.967 4.967 0 0 1-4.964 4.97h-9.831a4.967 4.967 0 0 1-4.964-4.97V270.94ZM153.747 306.959a4.967 4.967 0 0 1 4.964-4.97H271.29a4.966 4.966 0 0 1 4.963 4.97v11.071a4.966 4.966 0 0 1-4.963 4.97H158.711a4.967 4.967 0 0 1-4.964-4.97v-11.071ZM174.518 265.97a4.967 4.967 0 0 0-4.964 4.97v10.071a4.967 4.967 0 0 0 4.964 4.97h9.832a4.966 4.966 0 0 0 4.963-4.97V270.94a4.966 4.966 0 0 0-4.963-4.97h-9.832ZM240.687 270.94a4.966 4.966 0 0 1 4.963-4.97h9.832a4.967 4.967 0 0 1 4.964 4.97v10.071a4.967 4.967 0 0 1-4.964 4.97h-9.832a4.966 4.966 0 0 1-4.963-4.97V270.94ZM282.205 265.97a4.967 4.967 0 0 0-4.964 4.97v10.071a4.967 4.967 0 0 0 4.964 4.97h9.831a4.967 4.967 0 0 0 4.964-4.97V270.94a4.967 4.967 0 0 0-4.964-4.97h-9.831Z" />
</svg>