<svg xmlns="http://www.w3.org/2000/svg" width="288" height="288" fill="none">
    <g clip-path="url(#clip0_80_167)">
        <g clip-path="url(#clip3_80_167)">
            <g clip-path="url(#clip6_80_167)">
                <path fill="#625751" d="M-74-70h432v432H-74z" />
                <path fill="#8CB3D9" d="M191.833 194c4.511 0 8.167-3.582 8.167-8s-3.656-8-8.167-8c-4.51 0-8.166 3.582-8.166 8s3.656 8 8.166 8ZM118.333 186c0 4.418 3.657 8 8.167 8h32.667c4.51 0 8.166-3.582 8.166-8s-3.656-8-8.166-8H126.5c-4.51 0-8.167 3.582-8.167 8ZM151 162c4.51 0 8.167-3.582 8.167-8s-3.657-8-8.167-8-8.167 3.582-8.167 8 3.657 8 8.167 8ZM118.333 138c0 4.418-3.656 8-8.166 8-4.511 0-8.167-3.582-8.167-8s3.656-8 8.167-8c4.51 0 8.166 3.582 8.166 8ZM175.5 130c4.51 0 8.167-3.582 8.167-8s-3.657-8-8.167-8-8.167 3.582-8.167 8 3.657 8 8.167 8ZM151 98c0 4.418-3.656 8-8.167 8-4.51 0-8.166-3.582-8.166-8s3.656-8 8.166-8c4.511 0 8.167 3.582 8.167 8Z" />
            </g>
        </g>
    </g>
    <g fill-rule="evenodd" clip-path="url(#clip7_80_167)" clip-rule="evenodd">
        <path fill="#3F4B5C" d="m362-73.462-436.5.465V365.5H362V-73.462ZM70.532 206.667l18.72-99.897h36.108v-33.3h33.279v33.3h36.109l18.72 99.897H70.532Z" />
        <path fill="#8CB3D9" d="M73.524 104.178C74.986 96.421 81.796 90.8 89.73 90.8h19.293V74.4h-8.244c-2.336 0-4.296-.787-5.879-2.362-1.577-1.569-2.366-3.515-2.366-5.838s.79-4.272 2.366-5.847C96.483 58.784 98.444 58 100.78 58h82.442c2.336 0 4.293.785 5.87 2.353 1.583 1.575 2.375 3.524 2.375 5.847 0 2.323-.792 4.27-2.375 5.838-1.577 1.575-3.534 2.362-5.87 2.362h-8.244v16.4h19.293c7.934 0 14.744 5.62 16.206 13.378l20.38 108.111c.952 5.046-2.941 9.711-8.103 9.711H61.247c-5.162 0-9.055-4.665-8.103-9.711l20.38-108.111ZM89.73 107.2l-18.55 98.4H212.82l-18.549-98.4h-35.781V74.4h-32.978v32.8h-35.78Z" />
    </g>
</svg>