<svg width="74" height="94" viewBox="0 0 74 94" fill="none" xmlns="http://www.w3.org/2000/svg">
    <path d="M0 70.6971C0 69.4685 0.995974 68.4725 2.22457 68.4725H6.63095C7.85955 68.4725 8.85552 69.4685 8.85552 70.6971V75.205C8.85552 76.4336 7.85955 77.4296 6.63095 77.4296H2.22457C0.995977 77.4296 0 76.4336 0 75.205V70.6971Z" fill="white" />
    <path d="M9.29834 86.8198C9.29834 85.5912 10.2943 84.5953 11.5229 84.5953H61.978C63.2066 84.5953 64.2026 85.5912 64.2026 86.8198V91.7756C64.2026 93.0042 63.2066 94.0002 61.978 94.0002H11.5229C10.2943 94.0002 9.29834 93.0042 9.29834 91.7756V86.8198Z" fill="white" />
    <path d="M18.6073 68.4725C17.3787 68.4725 16.3827 69.4685 16.3827 70.6971V75.205C16.3827 76.4336 17.3787 77.4296 18.6073 77.4296H23.0137C24.2423 77.4296 25.2383 76.4336 25.2383 75.205V70.6971C25.2383 69.4685 24.2423 68.4725 23.0137 68.4725H18.6073Z" fill="white" />
    <path d="M48.2626 70.6971C48.2626 69.4685 49.2585 68.4725 50.4871 68.4725H54.8935C56.1221 68.4725 57.1181 69.4685 57.1181 70.6971V75.205C57.1181 76.4336 56.1221 77.4296 54.8935 77.4296H50.4871C49.2585 77.4296 48.2626 76.4336 48.2626 75.205V70.6971Z" fill="white" />
    <path d="M66.8699 68.4725C65.6413 68.4725 64.6453 69.4685 64.6453 70.6971V75.205C64.6453 76.4336 65.6413 77.4296 66.8699 77.4296H71.2763C72.5049 77.4296 73.5008 76.4336 73.5008 75.205V70.6971C73.5008 69.4685 72.5049 68.4725 71.2763 68.4725H66.8699Z" fill="white" />
    <path d="M0 55.1655C0 53.9369 0.995974 52.9409 2.22457 52.9409H6.63095C7.85955 52.9409 8.85552 53.9369 8.85552 55.1655V59.6735C8.85552 60.9021 7.85955 61.898 6.63095 61.898H2.22457C0.995977 61.898 0 60.9021 0 59.6735V55.1655Z" fill="white" />
    <path d="M66.8699 52.9409C65.6413 52.9409 64.6453 53.9369 64.6453 55.1655V59.6735C64.6453 60.9021 65.6413 61.898 66.8699 61.898H71.2763C72.5049 61.898 73.5008 60.9021 73.5008 59.6735V55.1655C73.5008 53.9369 72.5049 52.9409 71.2763 52.9409H66.8699Z" fill="white" />
    <path fill-rule="evenodd" clip-rule="evenodd" d="M15.8664 8.93984V43.1557L36.5599 60.7684L57.4586 43.118L57.6236 8.93984H15.8664ZM13.6664 0H59.8344C63.4922 0 66.4523 3.02195 66.4344 6.73776L66.2535 44.2035C66.244 46.1845 65.3725 48.0599 63.8729 49.3264L37.95 71.2202C37.1324 71.9107 35.9457 71.9084 35.1307 71.2148L9.42772 49.3384C7.93094 48.0645 7.06628 46.1826 7.06628 44.1989V6.70488C7.06628 3.00188 10.0212 0 13.6664 0Z" fill="white" />
</svg>
    