<svg width="300" height="300" viewBox="0 0 402 402" fill="none" xmlns="http://www.w3.org/2000/svg">
    <g clip-path="url(#clip0_2_4)">
        <path d="M146.821 70.453L177.368 101L162.095 116.273L146.821 101L131.548 116.273L85.7273 70.453L101.001 55.1795L85.7273 39.906L101.001 24.6324L131.548 55.1795L116.274 70.453L131.548 85.7265L146.821 70.453Z" fill="#00000016" />
        <path d="M70.4538 85.7265L85.7273 70.453L70.4538 55.1795L39.9068 85.7265L55.1803 101L39.9068 116.273L85.7273 162.094L101.001 146.82L116.274 162.094L146.821 131.547L131.548 116.273L116.274 131.547L101.001 116.273L85.7273 131.547L70.4538 116.273L85.7273 101L70.4538 85.7265Z" fill="#00000016" />
    </g>
    <g clip-path="url(#clip1_2_4)">
        <path d="M271.453 55.1795L302 24.6325L317.273 39.906L302 55.1795L317.273 70.453L271.453 116.274L256.179 101L240.906 116.274L225.632 101L256.179 70.453L271.453 85.7265L286.726 70.453L271.453 55.1795Z" fill="#00000016" />
        <path d="M286.726 131.547L271.453 116.274L256.179 131.547L286.726 162.094L302 146.821L317.273 162.094L363.094 116.274L347.82 101L363.094 85.7265L332.547 55.1795L317.273 70.453L332.547 85.7265L317.273 101L332.547 116.274L317.273 131.547L302 116.274L286.726 131.547Z" fill="#00000016" />
    </g>
    <g clip-path="url(#clip2_2_4)">
        <path d="M70.4537 256.179L101.001 225.632L116.274 240.906L101.001 256.179L116.274 271.453L70.4537 317.274L55.1802 302L39.9067 317.274L24.6332 302L55.1802 271.453L70.4537 286.726L85.7272 271.453L70.4537 256.179Z" fill="#00000016" />
        <path d="M85.7272 332.547L70.4537 317.274L55.1802 332.547L85.7272 363.094L101.001 347.821L116.274 363.094L162.095 317.274L146.821 302L162.095 286.726L131.548 256.179L116.274 271.453L131.548 286.726L116.274 302L131.548 317.274L116.274 332.547L101.001 317.274L85.7272 332.547Z" fill="#00000016" />
    </g>
    <g clip-path="url(#clip3_2_4)">
        <path d="M347.821 271.453L378.368 302L363.094 317.273L347.821 302L332.547 317.273L286.726 271.453L302 256.179L286.726 240.906L302 225.632L332.547 256.179L317.274 271.453L332.547 286.726L347.821 271.453Z" fill="#00000016" />
        <path d="M271.453 286.726L286.726 271.453L271.453 256.179L240.906 286.726L256.179 302L240.906 317.273L286.726 363.094L302 347.82L317.274 363.094L347.821 332.547L332.547 317.273L317.274 332.547L302 317.273L286.726 332.547L271.453 317.273L286.726 302L271.453 286.726Z" fill="#00000016" />
    </g>
</svg>
    